<svg xmlns="http://www.w3.org/2000/svg" xmlns:xlink="http://www.w3.org/1999/xlink" width="200" zoomAndPan="magnify" viewBox="0 0 150 149.999998" height="200" preserveAspectRatio="xMidYMid meet" version="1.0"><defs><clipPath id="c3497326bc"><path d="M 24 28 L 126.808594 28 L 126.808594 123 L 24 123 Z M 24 28 " clip-rule="nonzero"/></clipPath></defs><g clip-path="url(#c3497326bc)"><path fill="#74d1f4" d="M 117.035156 29.515625 C 87.53125 45.714844 58.003906 61.886719 28.515625 78.097656 C 25.25 79.523438 23.332031 84.214844 25.949219 87.078125 C 27.703125 89.617188 31.015625 89.582031 33.734375 90.167969 C 43.421875 91.753906 53.050781 93.75 62.765625 95.1875 C 66.550781 95.660156 67.4375 89.351562 63.753906 88.691406 C 53.683594 86.59375 43.5 85.09375 33.390625 83.183594 C 62.003906 67.417969 90.65625 51.726562 119.308594 36.023438 C 117.304688 57.3125 115.113281 78.589844 113.121094 99.875 L 108.238281 68.0625 C 107.972656 66.328125 106.359375 65.140625 104.621094 65.40625 C 102.886719 65.671875 101.699219 67.296875 101.964844 69.03125 L 108.425781 111.125 C 97.582031 105.386719 87.125 98.867188 76.429688 92.835938 C 87.761719 79.675781 98.972656 66.402344 110.148438 53.113281 C 113.273438 50.214844 108.207031 45.203125 105.410156 48.410156 C 92.660156 62.804688 80.761719 77.972656 67.808594 92.175781 C 68.558594 100.757812 70.617188 109.160156 71.859375 117.691406 C 71.976562 120.59375 74.867188 123.476562 77.867188 122.550781 C 81.09375 121.699219 82.019531 118.164062 83.558594 115.632812 C 84.878906 112.988281 87.480469 109.65625 84.496094 107.152344 C 81.078125 105.511719 79.023438 109.121094 77.753906 111.675781 C 77.054688 107.863281 76.394531 104.035156 75.734375 100.222656 C 87.0625 106.871094 98.429688 113.46875 109.882812 119.890625 C 113.414062 122.027344 118.152344 119.253906 118.394531 115.265625 C 121.074219 88.460938 123.6875 61.632812 126.203125 34.816406 C 126.789062 30.023438 120.933594 26.730469 117.035156 29.515625 Z M 117.035156 29.515625 " fill-opacity="1" fill-rule="nonzero"/></g></svg>